<svg xmlns="http://www.w3.org/2000/svg" viewBox="0 0 24.64 25.86"><defs><style>.cls-1{fill:#ebecf0;}.cls-2{fill:#c1c7d0;}.cls-3{fill:#0ac905;}.cls-4{fill:#168e2d;}.cls-5{fill:#fff;}</style></defs><title>资源 6</title><g id="图层_2" data-name="图层 2"><g id="图层_1-2" data-name="图层 1"><path class="cls-1" d="M22.17,23.4a1.24,1.24,0,0,1-.36.87,1.27,1.27,0,0,1-.88.36H3.69A1.23,1.23,0,0,1,2.46,23.4V1.23A1.23,1.23,0,0,1,3.69,0H14.27a1.27,1.27,0,0,1,.88.36L21.81,7a1.25,1.25,0,0,1,.36.88Z"/><path class="cls-2" d="M22.17,23.4v1.23a1.23,1.23,0,0,1-.36.87,1.27,1.27,0,0,1-.88.36H3.69a1.23,1.23,0,0,1-1.23-1.23V23.4a1.23,1.23,0,0,0,1.23,1.23H20.93a1.23,1.23,0,0,0,1.23-1.23Z"/><path class="cls-3" d="M0,13.55H24.63v6.16a1.23,1.23,0,0,1-1.23,1.23H1.23A1.23,1.23,0,0,1,0,19.71Z"/><path class="cls-4" d="M2.46,13.55V11.08L0,13.55Zm19.71,0,0-2.47,2.45,2.47Z"/><path class="cls-2" d="M22.17,7.9v.17H15.5a1.23,1.23,0,0,1-1.23-1.23V0a1.23,1.23,0,0,1,.87.36L21.82,7a1.23,1.23,0,0,1,.34.88Z"/><path class="cls-5" d="M6.09,19.3H2.83V15.41H6v.91H4.12v.55H5.73v.9H4.12v.62h2Zm2.34-1.1L7.8,19.3H6.36l1.38-2L6.49,15.41H7.93l.54,1,.58-1h1.43L9.15,17.27l1.33,2H9.05Zm6.11-1.31H13.33a.66.66,0,0,0-.69-.64q-.71,0-.72,1.14c0,.71.25,1.06.76,1.06s.6-.22.65-.65h1.23a1.7,1.7,0,0,1-1.86,1.56,1.87,1.87,0,0,1-2-2,1.92,1.92,0,0,1,1.94-2.05,1.72,1.72,0,0,1,1.95,1.59Zm3.84,2.41H15.13V15.41h3.19v.91h-1.9v.55H18v.9h-1.6v.62h2Zm3.68,0H19V15.41h1.29v3h1.75Z"/></g></g></svg>